<?xml version="1.0" encoding="UTF-8"?>
<svg xmlns="http://www.w3.org/2000/svg" viewBox="0 0 32 32">
  <defs>
    <clipPath id="b">
      <path d="M7,3 H18 C23,3 26,6 26,9.5 C26,12.5 24,14.5 21,15.5 C25,16.5 28,19 28,22.5 C28,27 24.5,29 19,29 H7 Z"/>
    </clipPath>
  </defs>
  <g clip-path="url(#b)" font-family="'Courier New',monospace" font-size="4.2" fill="#e6e6e6" letter-spacing="0.3">
    <text x="5" y="6">01001</text>
    <text x="5" y="10">10110</text>
    <text x="5" y="14">01000</text>
    <text x="5" y="18">11010</text>
    <text x="5" y="22">01001</text>
    <text x="5" y="26">10011</text>
    <text x="5" y="30">01100</text>
  </g>
  <path d="M12,8 V13 H16 C18,13 19.5,11.5 19.5,10.5 C19.5,9.5 18,8 16,8 Z M12,19 V25 H17 C19.5,25 21.5,23.5 21.5,22 C21.5,20.5 19.5,19 17,19 Z" fill="rgba(0,0,0,0.85)"/>
</svg>
