<?xml version="1.0" encoding="UTF-8"?>
<svg xmlns="http://www.w3.org/2000/svg" viewBox="0 0 16 16">
  <rect x="3" y="2" width="2" height="1" fill="#fff"/>
  <rect x="5" y="2" width="2" height="1" fill="#fff"/>
  <rect x="7" y="2" width="2" height="1" fill="#fff"/>
  <rect x="9" y="2" width="2" height="1" fill="#ccc"/>
  <rect x="3" y="3" width="2" height="1" fill="#fff"/>
  <rect x="5" y="3" width="2" height="1" fill="#aaa"/>
  <rect x="7" y="3" width="2" height="1" fill="#ccc"/>
  <rect x="9" y="3" width="2" height="1" fill="#fff"/>
  <rect x="11" y="3" width="2" height="1" fill="#ddd"/>
  <rect x="3" y="4" width="2" height="1" fill="#ccc"/>
  <rect x="5" y="4" width="2" height="1" fill="#fff"/>
  <rect x="7" y="4" width="2" height="1" fill="#ddd"/>
  <rect x="9" y="4" width="2" height="1" fill="#fff"/>
  <rect x="11" y="4" width="2" height="1" fill="#eee"/>
  <rect x="3" y="5" width="2" height="1" fill="#fff"/>
  <rect x="5" y="5" width="2" height="1" fill="#ddd"/>
  <rect x="7" y="5" width="2" height="1" fill="#fff"/>
  <rect x="9" y="5" width="2" height="1" fill="#ccc"/>
  <rect x="11" y="5" width="2" height="1" fill="#fff"/>
  <rect x="3" y="6" width="2" height="1" fill="#ddd"/>
  <rect x="5" y="6" width="2" height="1" fill="#fff"/>
  <rect x="7" y="6" width="2" height="1" fill="#aaa"/>
  <rect x="9" y="6" width="2" height="1" fill="#fff"/>
  <rect x="3" y="7" width="2" height="1" fill="#fff"/>
  <rect x="5" y="7" width="2" height="1" fill="#ccc"/>
  <rect x="7" y="7" width="2" height="1" fill="#fff"/>
  <rect x="9" y="7" width="2" height="1" fill="#ddd"/>
  <rect x="11" y="7" width="2" height="1" fill="#eee"/>
  <rect x="3" y="8" width="2" height="1" fill="#ccc"/>
  <rect x="5" y="8" width="2" height="1" fill="#fff"/>
  <rect x="7" y="8" width="2" height="1" fill="#ddd"/>
  <rect x="9" y="8" width="2" height="1" fill="#fff"/>
  <rect x="11" y="8" width="2" height="1" fill="#fff"/>
  <rect x="3" y="9" width="2" height="1" fill="#fff"/>
  <rect x="5" y="9" width="2" height="1" fill="#ddd"/>
  <rect x="7" y="9" width="2" height="1" fill="#fff"/>
  <rect x="9" y="9" width="2" height="1" fill="#aaa"/>
  <rect x="11" y="9" width="2" height="1" fill="#ccc"/>
  <rect x="3" y="10" width="2" height="1" fill="#ddd"/>
  <rect x="5" y="10" width="2" height="1" fill="#fff"/>
  <rect x="7" y="10" width="2" height="1" fill="#ccc"/>
  <rect x="9" y="10" width="2" height="1" fill="#fff"/>
  <rect x="11" y="10" width="2" height="1" fill="#fff"/>
  <rect x="13" y="10" width="1" height="1" fill="#eee"/>
  <rect x="3" y="11" width="2" height="1" fill="#fff"/>
  <rect x="5" y="11" width="2" height="1" fill="#aaa"/>
  <rect x="7" y="11" width="2" height="1" fill="#fff"/>
  <rect x="9" y="11" width="2" height="1" fill="#ddd"/>
  <rect x="11" y="11" width="2" height="1" fill="#fff"/>
  <rect x="13" y="11" width="1" height="1" fill="#ddd"/>
  <rect x="3" y="12" width="2" height="1" fill="#ccc"/>
  <rect x="5" y="12" width="2" height="1" fill="#fff"/>
  <rect x="7" y="12" width="2" height="1" fill="#ddd"/>
  <rect x="9" y="12" width="2" height="1" fill="#fff"/>
  <rect x="11" y="12" width="2" height="1" fill="#ccc"/>
  <rect x="3" y="13" width="2" height="1" fill="#fff"/>
  <rect x="5" y="13" width="2" height="1" fill="#ddd"/>
  <rect x="7" y="13" width="2" height="1" fill="#fff"/>
  <rect x="9" y="13" width="2" height="1" fill="#ccc"/>
  <rect x="11" y="13" width="2" height="1" fill="#fff"/>
</svg>
