<?xml version="1.0" encoding="UTF-8"?>
<svg xmlns="http://www.w3.org/2000/svg" viewBox="180 40 580 115" role="img">
  <title>BitsBridge Logo</title>
  <defs>
    <clipPath id="cb1">
      <path fill-rule="evenodd" d="M188,53 H228 C244,53 250,61 250,70 C250,79 244,85 232,86.5 C246,88 254,96 254,104 C254,115 244,120 228,120 H188 Z M210,65 V77 H222 C228,77 231,74 231,71 C231,68 228,65 222,65 Z M210,96 V109 H224 C232,109 236,105 236,102.5 C236,99 232,96 224,96 Z"/>
    </clipPath>
    <clipPath id="cb2">
      <path fill-rule="evenodd" d="M372,53 H412 C428,53 434,61 434,70 C434,79 428,85 416,86.5 C430,88 438,96 438,104 C438,115 428,120 412,120 H372 Z M394,65 V77 H406 C412,77 415,74 415,71 C415,68 412,65 406,65 Z M394,96 V109 H408 C416,109 420,105 420,102.5 C420,99 416,96 408,96 Z"/>
    </clipPath>
  </defs>
  <!-- Binary B in "Bits" -->
  <g clip-path="url(#cb1)" font-family="'Courier New',Courier,monospace" font-size="8.5" fill="#e6e6e6">
    <text x="182" y="58">01000010 01001001</text>
    <text x="182" y="69">01010100 01010011</text>
    <text x="182" y="80">01000010 01001001</text>
    <text x="182" y="91">01010100 01010011</text>
    <text x="182" y="102">01000010 01001001</text>
    <text x="182" y="113">01010100 01010011</text>
    <text x="182" y="124">01000010 01001001</text>
  </g>
  <!-- "its" solid -->
  <text x="254" y="120" font-size="92" font-weight="900" font-family="'Arial Black',Impact,Haettenschweiler,sans-serif" fill="#e6e6e6">its</text>
  <!-- Binary B in "Bridge" -->
  <g clip-path="url(#cb2)" font-family="'Courier New',Courier,monospace" font-size="8.5" fill="#e6e6e6">
    <text x="366" y="58">01000010 01010010</text>
    <text x="366" y="69">01001001 01000100</text>
    <text x="366" y="80">01000111 01000101</text>
    <text x="366" y="91">01000010 01010010</text>
    <text x="366" y="102">01001001 01000100</text>
    <text x="366" y="113">01000111 01000101</text>
    <text x="366" y="124">01000010 01010010</text>
  </g>
  <!-- "ridge" solid -->
  <text x="438" y="120" font-size="92" font-weight="900" font-family="'Arial Black',Impact,Haettenschweiler,sans-serif" fill="#e6e6e6">ridge</text>
</svg>
